<?xml version="1.0" encoding="utf-8"?>
<!-- Generator: Adobe Illustrator 22.0.1, SVG Export Plug-In . SVG Version: 6.00 Build 0)  -->
<svg version="1.1" id="Layer_1" xmlns="http://www.w3.org/2000/svg" xmlns:xlink="http://www.w3.org/1999/xlink" x="0px" y="0px"
	 viewBox="0 0 500 9.2" style="enable-background:new 0 0 500 9.2;" xml:space="preserve">
<style type="text/css">
	.st0{fill:none;stroke:#D5D5D5;stroke-width:2;stroke-linecap:round;stroke-miterlimit:10;}
</style>
<title>DashDividers_1_500x100_3</title>
<path class="st0" d="M48.5,3.6c8.1,0,8.1,2,16.1,2s8.1-2,16.1-2s8.1,2,16.1,2s8.1-2,16.1-2s8.1,2,16.1,2s8.1-2,16.1-2s8.1,2,16.1,2
	s8.1-2,16.1-2s8.1,2,16.1,2s8.1-2,16.1-2s8.1,2,16.1,2s8.1-2,16.1-2s8.1,2,16.1,2c8.1,0,8.1-2,16.1-2s8.1,2,16.1,2s8.1-2,16.1-2
	s8.1,2,16.1,2s8.1-2,16.1-2s8.1,2,16.1,2s8.1-2,16.1-2s8.1,2,16.1,2s8.1-2,16.1-2s8.1,2,16.1,2s8.1-2,16.1-2s8.1,2,16.1,2"/>
</svg>
